<?xml version="1.0" standalone="no"?><!DOCTYPE svg PUBLIC "-//W3C//DTD SVG 1.1//EN" "http://www.w3.org/Graphics/SVG/1.1/DTD/svg11.dtd"><svg t="1563957913349" class="icon" viewBox="0 0 1024 1024" version="1.1" xmlns="http://www.w3.org/2000/svg" p-id="9035" xmlns:xlink="http://www.w3.org/1999/xlink" width="200" height="200"><defs><style type="text/css"></style></defs><path d="M283.629779 572.748572c68.068282-4.638647 119.184473-22.818705 151.930271-54.035684 39.460734-37.619806 58.168818-38.153972 63.285349-38.270629l53.17713 0c10.959609 0 19.543102-9.385764 18.612916-20.305465-1.298576-15.239076-4.212952-37.445844-10.748808-61.036122-17.146519-61.881372-50.828642-104.213503-97.405447-122.418121-95.445816-37.305651-155.699108-0.112564-162.256454 4.251837l47.62774 71.556733c0 0-0.347924 0.264013-1.062192 0.676405 1.240247-0.717338 30.976502-17.305131 84.399225 3.575432 17.286712 6.756891 29.379121 23.177885 37.703717 42.246173-29.78128 7.928576-60.826344 27.174919-92.645027 57.508785-17.140379 16.341177-51.631938 27.137057-97.118921 30.398334-39.204907 2.812045-72.503291-1.000793-72.78163-1.032516l-10.212596 85.34783c1.207501 0.145309 22.834055 2.676969 53.085032 2.676969C259.803117 573.889559 271.443225 573.579497 283.629779 572.748572z" p-id="9036" fill="#ffffff"></path><path d="M692.429349 364.80866m-81.864496 0a80 80 0 1 0 163.728992 0 80 80 0 1 0-163.728992 0Z" p-id="9037" fill="#ffffff"></path><path d="M839.331094 643.383306c-1.966795-1.333368-48.91506-32.829709-112.327298-48.681746-89.288582-22.320355-168.118975-3.936659-227.973178 53.165874-20.754696 19.803022-65.767889 40.056298-162.334225 24.085558-64.284095-10.630105-118.689193-32.567743-119.231545-32.787754l-16.223496 39.799448-16.259312 39.784098c2.520403 1.030469 62.575174 25.371854 136.02707 37.733393 28.084639 4.726651 54.568826 7.095605 79.17934 7.095605 14.400988 0 28.16241-0.811482 41.219797-2.436492 48.390104-6.02011 87.741343-23.205515 116.956735-51.079352 20.780279-19.823488 44.057425-31.726585 71.160713-36.389792 22.563902-3.880377 47.62774-2.571568 74.495668 3.897773 49.13507 11.82635 86.823438 36.795021 87.198991 37.045731l-0.103354-0.069585L839.331094 643.383306z" p-id="9038" fill="#ffffff"></path></svg>